,
Brought to you by  http://www.scenetime.com/signup.php
 
 Hottest scene tracker on the net !!!   
 
No fake torrents from scenebalance 
shame on those who comment fake before downloading my torrents

    seed back for speed


 



...................................NFO:.................................................
                   _..._                          _..._    
                .-'_..._''.                    .-'_..._''.  
        .--.  .' .'      '.\                 .' .'      '.\
        |__| / .'                           / .'            
    .|  .--.. '               .|           . '              
  .' |_ |  || |             .' |_     __   | |              
.'     ||  || |           .'     | .:--.'. | |              
'--.  .-'|  |. '          '--.  .-'/ |   \ |. '              
  |  |  |  | \ '.          .|  |  `" __ | | \ '.          .
  |  |  |__|  '. `._____.-'/|  |   .'.''| |  '. `._____.-'/
  |  '.'        `-.______ / |  '.'/ /   | |_   `-.______ /  
  |   /                  `  |   / \ \._,\ '/            `  
  `'-'                      `'-'   `--'  `"                

_____ _____  ____   ____  ____  __  _  _____  ____
| ()_)| () )| ===| (_ (_`| ===||  \| ||_   _|(_ (_`
|_|   |_|\_\|____|.__)__)|____||_|\__|  |_| .__)__)



Love Camp 7 1969 DVDRip (REQ) TiCTaC

 
http://www.imdb.com/title/tt0063242/




3.1/10



Cast

Bob Cresse 	Bob Cresse 	... 	
Commandant (as R.W. Cresse)
Maria Lease 	Maria Lease 	... 	
WAC Lt. Linda Harman
Kathy Williams 	Kathy Williams 	... 	
WAC Lt. Grace Freeman
Bruce Kimball 	Bruce Kimball 	... 	
Sgt. Klaus Mller (as Bruce Kemp)
John Alderman 	John Alderman 	... 	
Capt. Robert Calais (as John Aiderman)
Rodger Steel 	Rodger Steel 	... 	
Gen. Erich von Hamer
Rod Wilmoth 	Rod Wilmoth 	... 	
Col. Karl Mller (as Rod Willmouth)
David F. Friedman 	David F. Friedman 	... 	
Col. Max Kemp (as Dave Friedman)
Patricia Roddy 	Patricia Roddy 		
John Riazzi 	John Riazzi 	... 	
Nazi with Hose
Cathy Adams 	Cathy Adams 	... 	
Blonde Prisoner (as Carolyn Appelby)
Louis Mazzarella 	Louis Mazzarella 		
Ken Sims 	Ken Sims 		
Larry Martinelli 	Larry Martinelli 	... 	
Russian General
Shari Mann 	Shari Mann 	... 	
Prisoner with Col. Kemp (as Shelly Martin)


Genres:
Horror | Thriller | War

Country:
USA
Language:
English

Runtime:
96 min 

Color:

                         *****WARNING*****
The film contains numerous scenes of women prisoners being abused, tortured and humiliated by their Nazi captors. Indeed the whole purpose of the work is to invite male viewers to relish the spectacle of naked women being humiliated for their titillation. LOVE CAMP 7 contains both eroticised depictions of sexual violence and repeated association of sex with restraint, pain, and humiliation
                         *****WARNING*****


General
Complete name                    : G:\Love Camp 7 1969 DVDRip (REQ) TiCTaC\Love Camp 7 1969 DVDRip (REQ) TiCTaC.avi
Format                           : AVI
Format/Info                      : Audio Video Interleave
File size                        : 1.10 GiB
Duration                         : 1h 32mn
Overall bit rate                 : 1 705 Kbps
Writing application              : Lavf52.13.0
Writing library                  : VirtualDub build 32842/release

Video
ID                               : 0
Format                           : MPEG-4 Visual
Format profile                   : Simple@L1
Format settings, BVOP            : No
Format settings, QPel            : No
Format settings, GMC             : No warppoints
Format settings, Matrix          : Default (H.263)
Codec ID                         : XVID
Codec ID/Hint                    : XviD
Duration                         : 1h 32mn
Bit rate                         : 1 500 Kbps
Width                            : 720 pixels
Height                           : 432 pixels
Display aspect ratio             : 16:9
Frame rate                       : 25.000 fps
Resolution                       : 8 bits
Colorimetry                      : 4:2:0
Scan type                        : Progressive
Bits/(Pixel*Frame)               : 0.193
Stream size                      : 990 MiB (88%)
Writing library                  : Lavc51.54.0

Audio
ID                               : 1
Format                           : MPEG Audio
Format version                   : Version 1
Format profile                   : Layer 3
Mode                             : Joint stereo
Format_Settings_ModeExtension    : MS Stereo
Codec ID                         : 55
Codec ID/Hint                    : MP3
Duration                         : 1h 32mn
Bit rate mode                    : Constant
Bit rate                         : 192 Kbps
Channel(s)                       : 2 channels
Sampling rate                    : 44.1 KHz
Stream size                      : 127 MiB (11%)
Alignment                        : Aligned on interleaves
Interleave, duration             : 26 ms (0.65 video frame)
Interleave, preload duration     : 522 ms
Writing library                  : LAME3.98 (beta)